<svg width="40" height="40" viewBox="0 0 40 40" fill="none" xmlns="http://www.w3.org/2000/svg">
<path d="M19.9999 19.1666C18.8948 19.1666 17.835 18.7276 17.0536 17.9462C16.2722 17.1648 15.8333 16.105 15.8333 14.9999C15.8333 13.8948 16.2722 12.835 17.0536 12.0536C17.835 11.2722 18.8948 10.8333 19.9999 10.8333C21.105 10.8333 22.1648 11.2722 22.9462 12.0536C23.7276 12.835 24.1666 13.8948 24.1666 14.9999C24.1666 15.5471 24.0588 16.0889 23.8494 16.5944C23.64 17.1 23.3331 17.5593 22.9462 17.9462C22.5593 18.3331 22.1 18.64 21.5944 18.8494C21.0889 19.0588 20.5471 19.1666 19.9999 19.1666ZM19.9999 3.33325C16.9057 3.33325 13.9383 4.56241 11.7503 6.75034C9.56241 8.93826 8.33325 11.9057 8.33325 14.9999C8.33325 23.7499 19.9999 36.6666 19.9999 36.6666C19.9999 36.6666 31.6666 23.7499 31.6666 14.9999C31.6666 11.9057 30.4374 8.93826 28.2495 6.75034C26.0616 4.56241 23.0941 3.33325 19.9999 3.33325Z" fill="#F5F5F5"/>
</svg>
