<svg width="120" height="120" viewBox="0 0 120 120" fill="none" xmlns="http://www.w3.org/2000/svg">
<g clip-path="url(#clip0_32_129)">
<path d="M116.197 81.7747L81.205 120.907C80.2199 122.011 78.8646 122.568 77.5144 122.568C76.3091 122.568 75.1039 122.123 74.1387 121.229C72.1034 119.328 71.9583 116.094 73.8237 114.009L108.775 74.9231C110.57 72.8692 110.41 69.6094 108.37 67.7139C106.415 65.7723 103.019 65.9716 101.229 68.0511L79.0596 92.9437C77.1243 98.3902 72.3834 102.565 66.5273 103.418L40.7175 107.183C37.977 107.567 35.4466 105.64 35.0565 102.846C34.6664 100.051 36.5668 97.4603 39.3023 97.0618L65.1121 93.2962C67.9126 92.8926 70.013 90.4095 70.013 87.5227C70.013 84.3038 67.4475 81.6827 64.2969 81.6827H20.0037C14.4877 81.6827 10.0019 86.2658 10.0019 91.9014V117.448C10.0019 120.273 7.76644 122.557 5.00093 122.557C2.23541 122.557 0 120.273 0 117.448V91.9014C0 80.6302 8.97166 71.4641 20.0037 71.4641H64.2969C69.998 71.4641 74.9539 74.6166 77.7094 79.2711L93.8324 61.1637C99.1584 54.9252 109.21 54.4552 115.106 60.147C121.177 65.7979 121.668 75.4954 116.197 81.7594V81.7747ZM15.0028 30.5998C10.862 30.5998 7.50139 34.0332 7.50139 38.2638C7.50139 42.4943 10.862 45.9277 15.0028 45.9277C19.1435 45.9277 22.5042 42.4943 22.5042 38.2638C22.5042 34.0332 19.1435 30.5998 15.0028 30.5998ZM40.0074 30.5998C35.8666 30.5998 32.506 34.0332 32.506 38.2638C32.506 42.4943 35.8666 45.9277 40.0074 45.9277C44.1482 45.9277 47.5088 42.4943 47.5088 38.2638C47.5088 34.0332 44.1482 30.5998 40.0074 30.5998ZM72.5134 38.2638C72.5134 34.0332 69.1528 30.5998 65.012 30.5998C60.8713 30.5998 57.5107 34.0332 57.5107 38.2638C57.5107 42.4943 60.8713 45.9277 65.012 45.9277C69.1528 45.9277 72.5134 42.4943 72.5134 38.2638ZM28.3302 61.2557H51.6896C54.3901 61.2557 56.0054 58.6346 54.3351 56.8617C50.9944 53.3209 45.8385 51.0371 40.0124 51.0371C34.1863 51.0371 29.0304 53.3158 25.6898 56.8617C24.0195 58.6346 25.6297 61.2557 28.3302 61.2557ZM62.5866 51.2721C64.637 54.2048 65.3421 57.7814 64.567 61.2557H76.6892C79.3897 61.2557 81.005 58.6346 79.3347 56.8617C75.9941 53.3209 70.8381 51.0371 65.012 51.0371C64.1769 51.0371 63.3917 51.1852 62.5866 51.2721ZM3.32562 61.2557H15.4479C14.6677 57.7865 15.3778 54.2048 17.4282 51.2721C16.6231 51.1801 15.8379 51.0371 15.0028 51.0371C9.1767 51.0371 4.02074 53.3158 0.680126 56.8617C-0.990183 58.6346 0.625116 61.2557 3.32562 61.2557ZM33.1962 17.9185L31.2358 24.2489C30.6007 26.0831 32.8511 27.7437 34.3814 26.6247L40.0224 22.8183L45.7585 26.5839C47.3088 27.6824 49.5392 25.9912 48.8741 24.1671L46.8337 17.9133L51.7646 13.8668C53.2549 12.6814 52.2997 10.0961 50.4243 10.1625H44.1732L41.9578 3.9087C41.3627 2.12044 38.6472 2.12044 38.0521 3.9087L35.8366 10.1625H29.5855C27.7151 10.0961 26.755 12.6712 28.2352 13.8617L33.1912 17.9236L33.1962 17.9185ZM59.8311 21.1527L58.3408 25.9656C57.8607 27.3605 59.566 28.6225 60.7313 27.7692L65.022 24.8773L69.3829 27.7386C70.5581 28.5714 72.2584 27.2889 71.7533 25.8992L70.203 21.1424L73.9537 18.0666C75.0889 17.1674 74.3588 15.2003 72.9335 15.2514H68.1776L66.4973 10.4946C66.0472 9.13553 63.9819 9.13553 63.5268 10.4946L61.8465 15.2514H57.0906C55.6703 15.2003 54.9402 17.1623 56.0654 18.0615L59.8311 21.1527ZM9.83182 21.1578L8.34155 25.9707C7.86146 27.3656 9.56677 28.6276 10.732 27.7743L15.0228 24.8825L19.3836 27.7437C20.5588 28.5765 22.2591 27.294 21.754 25.9043L20.2037 21.1475L23.9494 18.0717C25.0846 17.1725 24.3545 15.2054 22.9292 15.2565H18.1734L16.4931 10.4997C16.043 9.14064 13.9776 9.14064 13.5225 10.4997L11.8422 15.2565H7.08631C5.66605 15.2054 4.93591 17.1674 6.06112 18.0666L9.82682 21.1527L9.83182 21.1578Z" fill="#FA9C01"/>
</g>
<defs>
<clipPath id="clip0_32_129">
<rect width="120" height="120" fill="white"/>
</clipPath>
</defs>
</svg>
