<svg width="121" height="120" viewBox="0 0 121 120" fill="none" xmlns="http://www.w3.org/2000/svg">
<g clip-path="url(#clip0_32_136)">
<path d="M85.1667 65H55.1667V35C55.1667 26.73 48.4367 20 40.1667 20H20.1667C9.13675 20 0.166748 28.97 0.166748 40V100C0.166748 111.03 9.13675 120 20.1667 120H80.1667C91.1967 120 100.167 111.03 100.167 100V80C100.167 71.73 93.4367 65 85.1667 65ZM10.1667 40C10.1667 34.485 14.6517 30 20.1667 30H40.1667C42.9217 30 45.1667 32.24 45.1667 35V65H33.7417C34.6317 62.065 35.1667 59.14 35.1667 57.5C35.1667 53.36 31.8067 50 27.6667 50C23.5267 50 20.1667 53.36 20.1667 57.5C20.1667 59.14 20.6967 62.065 21.5917 65H10.1667V40ZM45.1667 110H20.1667C14.6517 110 10.1667 105.515 10.1667 100V75H45.1667V86.425C42.2317 85.535 39.3067 85 37.6667 85C33.5267 85 30.1667 88.36 30.1667 92.5C30.1667 96.64 33.5267 100 37.6667 100C39.3067 100 42.2317 99.47 45.1667 98.575V110ZM90.1667 100C90.1667 105.515 85.6817 110 80.1667 110H55.1667V75H66.5918C65.7017 77.935 65.1667 80.86 65.1667 82.5C65.1667 86.64 68.5267 90 72.6667 90C76.8067 90 80.1667 86.64 80.1667 82.5C80.1667 80.86 79.6367 77.935 78.7417 75H85.1667C87.9217 75 90.1667 77.24 90.1667 80V100ZM120.167 20V37.5C120.167 41.64 116.807 45 112.667 45H103.742C104.632 47.935 105.167 50.86 105.167 52.5C105.167 56.64 101.807 60 97.6667 60C93.5267 60 90.1667 56.64 90.1667 52.5C90.1667 50.86 90.6967 47.935 91.5918 45H82.6667C78.5267 45 75.1667 41.64 75.1667 37.5V28.575C78.1017 29.465 81.0267 30 82.6667 30C86.8067 30 90.1667 26.64 90.1667 22.5C90.1667 18.36 86.8067 15 82.6667 15C81.0267 15 78.1017 15.53 75.1667 16.425V7.5C75.1667 3.36 78.5267 0 82.6667 0H100.167C111.212 0 120.167 8.955 120.167 20Z" fill="#FA9C01"/>
</g>
<defs>
<clipPath id="clip0_32_136">
<rect width="120" height="120" fill="white" transform="translate(0.166748)"/>
</clipPath>
</defs>
</svg>
