<svg width="121" height="120" viewBox="0 0 121 120" fill="none" xmlns="http://www.w3.org/2000/svg">
<g clip-path="url(#clip0_32_145)">
<path d="M60.073 120.045L58.303 119.26C56.333 118.395 10.333 97.62 10.333 60V27.38C10.3348 24.2409 11.3269 21.1823 13.1682 18.6399C15.0095 16.0975 17.606 14.2008 20.588 13.22L60.333 0.0450439L100.078 13.22C103.06 14.2008 105.657 16.0975 107.498 18.6399C109.339 21.1823 110.331 24.2409 110.333 27.38V60C110.333 102.885 63.893 118.775 61.913 119.435L60.073 120.045ZM60.333 10.53L23.753 22.66C22.7577 22.9851 21.8909 23.6168 21.2765 24.4647C20.6622 25.3125 20.3319 26.333 20.333 27.38V60C20.333 87.47 52.533 105.29 60.568 109.305C68.588 106.08 100.333 91.315 100.333 60V27.38C100.334 26.333 100.004 25.3125 99.3895 24.4647C98.7752 23.6168 97.9083 22.9851 96.913 22.66L60.333 10.53Z" fill="#FA9C01"/>
<path d="M55.8878 72.7101H55.7228C54.4572 72.6907 53.2088 72.4149 52.0529 71.8992C50.897 71.3836 49.8576 70.6389 48.9978 69.7101L37.4678 57.7101L44.6728 50.8001L55.8928 62.5001L81.7978 36.5951L88.8678 43.6651L62.5628 69.9701C61.6866 70.8455 60.6455 71.5384 59.4998 72.0088C58.354 72.4791 57.1263 72.7175 55.8878 72.7101Z" fill="#FA9C01"/>
</g>
<defs>
<clipPath id="clip0_32_145">
<rect width="120" height="120" fill="white" transform="translate(0.333008)"/>
</clipPath>
</defs>
</svg>
