<svg width="120" height="120" viewBox="0 0 120 120" fill="none" xmlns="http://www.w3.org/2000/svg">
<g clip-path="url(#clip0_32_138)">
<path d="M102.494 49.9979H92.4948C83.6953 49.9979 76.3907 56.5277 75.1758 64.9973H52.4971C43.6976 64.9973 36.393 71.527 35.1781 79.9967H17.4991C7.84965 79.9967 0.000102505 87.8463 0.000102505 97.4959V102.496C0.000102505 112.145 7.84965 119.995 17.4991 119.995H102.494C112.144 119.995 119.993 112.145 119.993 102.496V67.4972C119.993 57.8476 112.144 49.9979 102.494 49.9979ZM9.99953 102.496V97.4959C9.99953 93.3611 13.3643 89.9962 17.4991 89.9962H34.9981V109.995H17.4991C13.3643 109.995 9.99953 106.631 9.99953 102.496ZM44.9975 82.4966C44.9975 78.3617 48.3623 74.9969 52.4971 74.9969H74.9958V109.995H44.9975V82.4966ZM109.994 102.496C109.994 106.631 106.629 109.995 102.494 109.995H84.9952V67.4972C84.9952 63.3624 88.36 59.9975 92.4948 59.9975H102.494C106.629 59.9975 109.994 63.3624 109.994 67.4972V102.496ZM80.2005 14.2844C80.6805 12.9745 81.9304 12.0995 83.3303 12.0995H93.3347L96.8745 2.1649C97.3595 0.859959 98.6044 -0.00500488 99.9993 -0.00500488C101.394 -0.00500488 102.639 0.859959 103.124 2.1649L106.664 12.0995H116.668C118.068 12.0995 119.318 12.9745 119.798 14.2894C120.278 15.6043 119.883 17.0793 118.813 17.9842L110.929 24.409L114.189 34.3436C114.633 35.6885 114.184 37.1684 113.059 38.0334C111.934 38.8984 110.389 38.9584 109.204 38.1884L100.024 32.2087L90.9998 38.2484C90.4399 38.6234 89.7899 38.8134 89.145 38.8134C88.44 38.8134 87.735 38.5884 87.1451 38.1484C86.0101 37.2984 85.5402 35.8285 85.9651 34.4786L89.1 24.424L81.1754 17.9742C80.1105 17.0693 79.7155 15.5943 80.2005 14.2844ZM40.2028 29.2838C40.6828 27.9738 41.9327 27.0989 43.3326 27.0989H53.337L56.8768 17.1643C57.3618 15.8593 58.6067 14.9944 60.0016 14.9944C61.3966 14.9944 62.6415 15.8593 63.1265 17.1643L66.6663 27.0989H76.6707C78.0706 27.0989 79.3205 27.9738 79.8005 29.2888C80.2805 30.6037 79.8855 32.0787 78.8156 32.9836L70.931 39.4084L74.1908 49.3429C74.6358 50.6879 74.1858 52.1678 73.0609 53.0328C71.936 53.8978 70.391 53.9578 69.2061 53.1878L60.0266 47.208L51.0022 53.2478C50.4422 53.6228 49.7922 53.8128 49.1473 53.8128C48.4423 53.8128 47.7373 53.5878 47.1474 53.1478C46.0124 52.2978 45.5425 50.8279 45.9674 49.4779L49.1023 39.4234L41.1777 32.9736C40.1128 32.0687 39.7178 30.5937 40.2028 29.2838ZM0.205091 44.2832C0.685063 42.9732 1.93499 42.0982 3.33491 42.0982H13.3393L16.8791 32.1637C17.3641 30.8587 18.609 29.9937 20.0039 29.9937C21.3989 29.9937 22.6438 30.8587 23.1288 32.1637L26.6686 42.0982H36.673C38.0729 42.0982 39.3228 42.9732 39.8028 44.2882C40.2828 45.6031 39.8878 47.078 38.8179 47.983L30.9333 54.4077L34.1931 64.3423C34.6381 65.6873 34.1881 67.1672 33.0632 68.0322C31.9383 68.8971 30.3933 68.9571 29.2084 68.1872L20.0289 62.2074L11.0045 68.2472C10.4445 68.6221 9.79454 68.8121 9.14957 68.8121C8.44462 68.8121 7.73966 68.5871 7.14969 68.1472C6.01475 67.2972 5.54478 65.8273 5.96976 64.4773L9.10458 54.4227L1.18003 47.973C0.115096 47.068 -0.279881 45.5931 0.205091 44.2832Z" fill="#FA9C01"/>
</g>
<defs>
<clipPath id="clip0_32_138">
<rect width="120" height="120" fill="white"/>
</clipPath>
</defs>
</svg>
